<svg width="33" height="33" viewBox="0 0 33 33" fill="none" xmlns="http://www.w3.org/2000/svg">
    <path
        d="M0 16.5C0 15.4874 0.82082 14.6667 1.83333 14.6667H14.6667V1.83333C14.6667 0.82082 15.4874 0 16.5 0C17.5126 0 18.3333 0.82082 18.3333 1.83333V14.6667H31.1667C32.1792 14.6667 33 15.4874 33 16.5C33 17.5126 32.1792 18.3333 31.1667 18.3333H18.3333V31.1667C18.3333 32.1792 17.5126 33 16.5 33C15.4874 33 14.6667 32.1792 14.6667 31.1667V18.3333H1.83333C0.82082 18.3333 0 17.5126 0 16.5Z"
        fill="#EBEBEE" />
</svg>